<svg xmlns="http://www.w3.org/2000/svg" xmlns:xlink="http://www.w3.org/1999/xlink" width="800" zoomAndPan="magnify" viewBox="0 0 600 149.999998" height="200" preserveAspectRatio="xMidYMid meet" version="1.0"><defs fill="#8749e9"><g/><clipPath id="6df8e0e756" fill="#8749e9"><path d="M 91 0.679688 L 596.878906 0.679688 L 596.878906 119 L 91 119 Z M 91 0.679688 " clip-rule="nonzero" fill="#8749e9"/></clipPath><clipPath id="20150d5b5c" fill="#8749e9"><rect x="0" width="506" y="0" height="119" fill="#8749e9"/></clipPath><clipPath id="10f5b8491e" fill="#8749e9"><rect x="0" width="597" y="0" height="122" fill="#8749e9"/></clipPath></defs><g transform="matrix(1, 0, 0, 1, 0, 7)"><g clip-path="url(#080808491e)"><path stroke-linecap="round" transform="matrix(4.029598, 0, 0, 4.029598, 0.000005, 23.538209)" fill="none" stroke-linejoin="round" d="M 3.9997 19.500453 C 3.9997 19.335657 4.01618 19.172799 4.04817 19.011881 C 4.08016 18.850962 4.12766 18.69489 4.19067 18.543665 C 4.252711 18.391471 4.330262 18.248002 4.421385 18.111318 C 4.512507 17.974634 4.616232 17.848613 4.732559 17.732286 C 4.847916 17.615959 4.974906 17.512235 5.110621 17.421112 C 5.247305 17.32999 5.391744 17.253408 5.542968 17.190397 C 5.695163 17.127387 5.851234 17.079887 6.012153 17.047897 C 6.173072 17.015907 6.335929 17.000397 6.499756 17.000397 L 20.000445 17.000397 " stroke="#986ae9" stroke-width="1.5" stroke-opacity="1" stroke-miterlimit="4"/><path stroke-linecap="round" transform="matrix(4.029598, 0, 0, 4.029598, 0.000005, 23.538209)" fill="none" stroke-linejoin="round" d="M 6.499756 2.000062 L 20.000445 2.000062 L 20.000445 17.000397 L 6.499756 17.000397 C 6.335929 17.000397 6.173072 16.983917 6.012153 16.951928 C 5.851234 16.919938 5.695163 16.872438 5.542968 16.809427 C 5.391744 16.746417 5.247305 16.669835 5.110621 16.578713 C 4.974906 16.48759 4.847916 16.383865 4.732559 16.267539 C 4.616232 16.151212 4.512507 16.025191 4.421385 15.888507 C 4.330262 15.752793 4.252711 15.608354 4.19067 15.457129 C 4.12766 15.304935 4.08016 15.148863 4.04817 14.987944 C 4.01618 14.827026 3.9997 14.664168 3.9997 14.500341 L 3.9997 3.499708 C 3.9997 3.4018 4.009394 3.303891 4.028782 3.206953 C 4.04817 3.110983 4.076282 3.016952 4.114088 2.92583 C 4.151894 2.834707 4.198425 2.748431 4.252711 2.667003 C 4.307966 2.584604 4.370007 2.508992 4.439803 2.439196 C 4.50863 2.3694 4.585212 2.307359 4.66664 2.253073 C 4.748069 2.197818 4.835314 2.152257 4.926437 2.11445 C 5.01659 2.076644 5.110621 2.047563 5.20756 2.029144 C 5.303529 2.009756 5.401438 2.000062 5.500315 2.000062 Z M 6.499756 2.000062 " stroke="#986ae9" stroke-width="1.5" stroke-opacity="1" stroke-miterlimit="4"/><g clip-path="url(#000000e756)"><g transform="matrix(1, 0, 0, 1, 91, -0.000000000000007105)"><g clip-path="url(#e500e85b5c)"><g fill="#8749e9" fill-opacity="1"><g transform="translate(0.457645, 92.762815)"><g><path d="M 58.84375 -31.375 C 58.84375 -21.238281 55.957031 -13.472656 50.1875 -8.078125 C 44.414062 -2.691406 36.082031 0 25.1875 0 L 7.75 0 L 7.75 -61.578125 L 27.078125 -61.578125 C 37.128906 -61.578125 44.9375 -58.921875 50.5 -53.609375 C 56.0625 -48.304688 58.84375 -40.894531 58.84375 -31.375 Z M 45.28125 -31.046875 C 45.28125 -44.273438 39.441406 -50.890625 27.765625 -50.890625 L 20.8125 -50.890625 L 20.8125 -10.78125 L 26.40625 -10.78125 C 38.988281 -10.78125 45.28125 -17.535156 45.28125 -31.046875 Z M 45.28125 -31.046875 " fill="#8749e9"/></g></g></g><g fill="#8749e9" fill-opacity="1"><g transform="translate(64.308619, 92.762815)"><g><path d="M 6.1875 -59.265625 C 6.1875 -63.453125 8.519531 -65.546875 13.1875 -65.546875 C 17.84375 -65.546875 20.171875 -63.453125 20.171875 -59.265625 C 20.171875 -57.273438 19.585938 -55.722656 18.421875 -54.609375 C 17.265625 -53.503906 15.519531 -52.953125 13.1875 -52.953125 C 8.519531 -52.953125 6.1875 -55.054688 6.1875 -59.265625 Z M 19.59375 0 L 6.734375 0 L 6.734375 -47.09375 L 19.59375 -47.09375 Z M 19.59375 0 " fill="#8749e9"/></g></g></g><g fill="#986ae9" fill-opacity="1"><g transform="translate(90.643215, 92.762815)"><g><path d="M 7.75 -61.578125 L 26.921875 -61.578125 C 35.648438 -61.578125 41.988281 -60.332031 45.9375 -57.84375 C 49.882812 -55.363281 51.859375 -51.414062 51.859375 -46 C 51.859375 -42.320312 50.992188 -39.300781 49.265625 -36.9375 C 47.535156 -34.582031 45.238281 -33.164062 42.375 -32.6875 L 42.375 -32.265625 C 46.28125 -31.390625 49.09375 -29.757812 50.8125 -27.375 C 52.539062 -24.988281 53.40625 -21.816406 53.40625 -17.859375 C 53.40625 -12.242188 51.375 -7.863281 47.3125 -4.71875 C 43.257812 -1.570312 37.753906 0 30.796875 0 L 7.75 0 Z M 20.8125 -37.1875 L 28.390625 -37.1875 C 31.929688 -37.1875 34.492188 -37.734375 36.078125 -38.828125 C 37.660156 -39.929688 38.453125 -41.742188 38.453125 -44.265625 C 38.453125 -46.628906 37.585938 -48.320312 35.859375 -49.34375 C 34.140625 -50.375 31.410156 -50.890625 27.671875 -50.890625 L 20.8125 -50.890625 Z M 20.8125 -26.828125 L 20.8125 -10.78125 L 29.3125 -10.78125 C 32.90625 -10.78125 35.554688 -11.46875 37.265625 -12.84375 C 38.984375 -14.21875 39.84375 -16.328125 39.84375 -19.171875 C 39.84375 -24.273438 36.191406 -26.828125 28.890625 -26.828125 Z M 20.8125 -26.828125 " fill="#8749e9"/></g></g></g><g fill="#986ae9" fill-opacity="1"><g transform="translate(148.597661, 92.762815)"><g><path d="M 26.234375 -38.84375 C 23.515625 -38.84375 21.378906 -37.976562 19.828125 -36.25 C 18.285156 -34.519531 17.40625 -32.066406 17.1875 -28.890625 L 35.21875 -28.890625 C 35.15625 -32.066406 34.320312 -34.519531 32.71875 -36.25 C 31.125 -37.976562 28.960938 -38.84375 26.234375 -38.84375 Z M 28.046875 0.84375 C 20.472656 0.84375 14.550781 -1.242188 10.28125 -5.421875 C 6.007812 -9.609375 3.875 -15.535156 3.875 -23.203125 C 3.875 -31.097656 5.847656 -37.203125 9.796875 -41.515625 C 13.742188 -45.828125 19.195312 -47.984375 26.15625 -47.984375 C 32.8125 -47.984375 37.992188 -46.085938 41.703125 -42.296875 C 45.410156 -38.503906 47.265625 -33.265625 47.265625 -26.578125 L 47.265625 -20.34375 L 16.890625 -20.34375 C 17.023438 -16.695312 18.101562 -13.847656 20.125 -11.796875 C 22.15625 -9.742188 24.992188 -8.71875 28.640625 -8.71875 C 31.472656 -8.71875 34.15625 -9.007812 36.6875 -9.59375 C 39.21875 -10.1875 41.859375 -11.128906 44.609375 -12.421875 L 44.609375 -2.484375 C 42.359375 -1.359375 39.957031 -0.523438 37.40625 0.015625 C 34.851562 0.566406 31.734375 0.84375 28.046875 0.84375 Z M 28.046875 0.84375 " fill="#8749e9"/></g></g></g><g fill="#986ae9" fill-opacity="1"><g transform="translate(199.560509, 92.762815)"><g><path d="M 19.59375 0 L 6.734375 0 L 6.734375 -65.546875 L 19.59375 -65.546875 Z M 19.59375 0 " fill="#8749e9"/></g></g></g><g fill="#986ae9" fill-opacity="1"><g transform="translate(225.884294, 92.762815)"><g><path d="M 36.640625 0 L 34.15625 -6.40625 L 33.828125 -6.40625 C 31.660156 -3.675781 29.429688 -1.785156 27.140625 -0.734375 C 24.859375 0.316406 21.878906 0.84375 18.203125 0.84375 C 13.679688 0.84375 10.117188 -0.445312 7.515625 -3.03125 C 4.921875 -5.613281 3.625 -9.289062 3.625 -14.0625 C 3.625 -19.0625 5.367188 -22.75 8.859375 -25.125 C 12.359375 -27.5 17.632812 -28.8125 24.6875 -29.0625 L 32.859375 -29.3125 L 32.859375 -31.375 C 32.859375 -36.15625 30.414062 -38.546875 25.53125 -38.546875 C 21.757812 -38.546875 17.332031 -37.40625 12.25 -35.125 L 8 -43.8125 C 13.414062 -46.644531 19.425781 -48.0625 26.03125 -48.0625 C 32.351562 -48.0625 37.195312 -46.6875 40.5625 -43.9375 C 43.9375 -41.1875 45.625 -37 45.625 -31.375 L 45.625 0 Z M 32.859375 -21.8125 L 27.890625 -21.65625 C 24.148438 -21.539062 21.367188 -20.863281 19.546875 -19.625 C 17.722656 -18.394531 16.8125 -16.515625 16.8125 -13.984375 C 16.8125 -10.359375 18.890625 -8.546875 23.046875 -8.546875 C 26.015625 -8.546875 28.390625 -9.398438 30.171875 -11.109375 C 31.960938 -12.828125 32.859375 -15.101562 32.859375 -17.9375 Z M 32.859375 -21.8125 " fill="#8749e9"/></g></g></g><g fill="#986ae9" fill-opacity="1"><g transform="translate(277.98433, 92.762815)"><g><path d="M 2.953125 20.71875 C -0.335938 20.71875 -3.160156 20.367188 -5.515625 19.671875 L -5.515625 9.5625 C -3.546875 10.09375 -1.539062 10.359375 0.5 10.359375 C 2.664062 10.359375 4.242188 9.753906 5.234375 8.546875 C 6.234375 7.335938 6.734375 5.554688 6.734375 3.203125 L 6.734375 -47.09375 L 19.59375 -47.09375 L 19.59375 5.09375 C 19.59375 10.09375 18.144531 13.945312 15.25 16.65625 C 12.351562 19.363281 8.253906 20.71875 2.953125 20.71875 Z M 6.1875 -59.265625 C 6.1875 -63.453125 8.519531 -65.546875 13.1875 -65.546875 C 17.84375 -65.546875 20.171875 -63.453125 20.171875 -59.265625 C 20.171875 -57.273438 19.585938 -55.722656 18.421875 -54.609375 C 17.265625 -53.503906 15.519531 -52.953125 13.1875 -52.953125 C 8.519531 -52.953125 6.1875 -55.054688 6.1875 -59.265625 Z M 6.1875 -59.265625 " fill="#8749e9"/></g></g></g><g fill="#986ae9" fill-opacity="1"><g transform="translate(304.308126, 92.762815)"><g><path d="M 36.640625 0 L 34.15625 -6.40625 L 33.828125 -6.40625 C 31.660156 -3.675781 29.429688 -1.785156 27.140625 -0.734375 C 24.859375 0.316406 21.878906 0.84375 18.203125 0.84375 C 13.679688 0.84375 10.117188 -0.445312 7.515625 -3.03125 C 4.921875 -5.613281 3.625 -9.289062 3.625 -14.0625 C 3.625 -19.0625 5.367188 -22.75 8.859375 -25.125 C 12.359375 -27.5 17.632812 -28.8125 24.6875 -29.0625 L 32.859375 -29.3125 L 32.859375 -31.375 C 32.859375 -36.15625 30.414062 -38.546875 25.53125 -38.546875 C 21.757812 -38.546875 17.332031 -37.40625 12.25 -35.125 L 8 -43.8125 C 13.414062 -46.644531 19.425781 -48.0625 26.03125 -48.0625 C 32.351562 -48.0625 37.195312 -46.6875 40.5625 -43.9375 C 43.9375 -41.1875 45.625 -37 45.625 -31.375 L 45.625 0 Z M 32.859375 -21.8125 L 27.890625 -21.65625 C 24.148438 -21.539062 21.367188 -20.863281 19.546875 -19.625 C 17.722656 -18.394531 16.8125 -16.515625 16.8125 -13.984375 C 16.8125 -10.359375 18.890625 -8.546875 23.046875 -8.546875 C 26.015625 -8.546875 28.390625 -9.398438 30.171875 -11.109375 C 31.960938 -12.828125 32.859375 -15.101562 32.859375 -17.9375 Z M 32.859375 -21.8125 " fill="#8749e9"/></g></g></g><g fill="#986ae9" fill-opacity="1"><g transform="translate(356.408152, 92.762815)"><g><path d="M 33.03125 -47.984375 C 34.769531 -47.984375 36.210938 -47.851562 37.359375 -47.59375 L 36.390625 -35.546875 C 35.347656 -35.828125 34.085938 -35.96875 32.609375 -35.96875 C 28.503906 -35.96875 25.304688 -34.914062 23.015625 -32.8125 C 20.734375 -30.707031 19.59375 -27.757812 19.59375 -23.96875 L 19.59375 0 L 6.734375 0 L 6.734375 -47.09375 L 16.46875 -47.09375 L 18.359375 -39.171875 L 19 -39.171875 C 20.457031 -41.816406 22.425781 -43.945312 24.90625 -45.5625 C 27.394531 -47.175781 30.101562 -47.984375 33.03125 -47.984375 Z M 33.03125 -47.984375 " fill="#8749e9"/></g></g></g><g fill="#8749e9" fill-opacity="1"><g transform="translate(395.584547, 92.762815)"><g><path d="M 4.921875 -6.015625 C 4.921875 -8.378906 5.550781 -10.164062 6.8125 -11.375 C 8.082031 -12.582031 9.925781 -13.1875 12.34375 -13.1875 C 14.675781 -13.1875 16.476562 -12.566406 17.75 -11.328125 C 19.03125 -10.097656 19.671875 -8.328125 19.671875 -6.015625 C 19.671875 -3.804688 19.023438 -2.0625 17.734375 -0.78125 C 16.441406 0.5 14.644531 1.140625 12.34375 1.140625 C 9.976562 1.140625 8.148438 0.515625 6.859375 -0.734375 C 5.566406 -1.984375 4.921875 -3.742188 4.921875 -6.015625 Z M 4.921875 -6.015625 " fill="#8749e9"/></g></g></g><g fill="#8749e9" fill-opacity="1"><g transform="translate(420.181492, 92.762815)"><g><path d="M 7.75 0 L 7.75 -61.578125 L 20.8125 -61.578125 L 20.8125 0 Z M 7.75 0 " fill="#8749e9"/></g></g></g><g fill="#8749e9" fill-opacity="1"><g transform="translate(448.737534, 92.762815)"><g><path d="M 50.203125 0 L 37.359375 0 L 37.359375 -27.5 C 37.359375 -30.90625 36.753906 -33.457031 35.546875 -35.15625 C 34.335938 -36.851562 32.414062 -37.703125 29.78125 -37.703125 C 26.1875 -37.703125 23.585938 -36.5 21.984375 -34.09375 C 20.390625 -31.695312 19.59375 -27.71875 19.59375 -22.15625 L 19.59375 0 L 6.734375 0 L 6.734375 -47.09375 L 16.546875 -47.09375 L 18.28125 -41.0625 L 19 -41.0625 C 20.425781 -43.34375 22.394531 -45.066406 24.90625 -46.234375 C 27.425781 -47.398438 30.285156 -47.984375 33.484375 -47.984375 C 38.960938 -47.984375 43.117188 -46.5 45.953125 -43.53125 C 48.785156 -40.570312 50.203125 -36.296875 50.203125 -30.703125 Z M 50.203125 0 " fill="#8749e9"/></g></g></g></g></g></g></g></g></svg>